<?xml version="1.0" standalone="no"?>
<!DOCTYPE svg PUBLIC "-//W3C//DTD SVG 20010904//EN"
 "http://www.w3.org/TR/2001/REC-SVG-20010904/DTD/svg10.dtd">
<svg version="1.0" xmlns="http://www.w3.org/2000/svg"
 width="512.000000pt" height="512.000000pt" viewBox="0 0 512.000000 512.000000"
 preserveAspectRatio="xMidYMid meet">

<g transform="translate(0.000000,512.000000) scale(0.100000,-0.100000)"
fill="#000000" stroke="none">
<path d="M740 4161 c-105 -32 -197 -112 -244 -211 l-31 -65 0 -1005 0 -1005
32 -61 c40 -76 110 -146 182 -182 l56 -27 1251 -3 1251 -2 17 -83 c10 -47 37
-122 63 -177 38 -79 59 -108 132 -180 71 -72 102 -95 181 -134 213 -105 442
-103 653 6 157 81 293 246 349 422 29 91 35 254 13 352 -68 308 -328 537 -637
561 l-77 6 -3 746 -3 746 -23 58 c-46 112 -139 201 -246 232 -43 13 -244 15
-1470 14 -782 0 -1432 -4 -1446 -8z m765 -1530 c48 -22 79 -54 100 -103 12
-29 15 -77 15 -215 0 -196 -8 -231 -66 -285 -48 -44 -71 -48 -315 -48 -206 0
-234 2 -267 19 -42 22 -63 43 -86 88 -13 26 -16 67 -16 231 l0 198 29 45 c18
30 44 53 72 67 41 21 58 22 269 22 197 0 230 -3 265 -19z m1759 -57 c21 -20
20 -63 -1 -86 -15 -17 -50 -18 -707 -18 -610 0 -694 2 -714 16 -26 18 -29 60
-5 86 15 17 51 18 714 18 621 0 699 -2 713 -16z m821 -346 c154 -32 316 -161
389 -308 105 -214 72 -467 -84 -647 -102 -118 -286 -203 -440 -203 -68 0 -176
26 -246 59 -215 100 -339 298 -337 536 1 162 54 289 169 406 144 146 337 202
549 157z m-1808 -90 c30 -28 29 -62 -3 -87 -25 -20 -40 -21 -218 -21 -218 0
-236 5 -236 65 0 60 18 65 239 65 186 0 196 -1 218 -22z m731 6 c15 -10 22
-25 22 -49 0 -58 -21 -65 -205 -65 -184 0 -205 7 -205 65 0 58 21 65 205 65
129 0 165 -3 183 -16z"/>
<path d="M1033 2520 c-38 -16 -43 -42 -43 -210 0 -223 -16 -210 255 -210 266
0 245 -18 245 213 0 229 19 211 -239 214 -108 1 -206 -2 -218 -7z"/>
<path d="M4290 1993 c-8 -3 -128 -121 -266 -262 l-252 -256 -78 83 c-84 88
-108 98 -144 62 -38 -38 -27 -63 80 -177 112 -120 122 -127 154 -119 13 3 150
136 305 295 302 311 307 319 255 360 -28 22 -30 23 -54 14z"/>
</g>
</svg>
