<?xml version="1.0" standalone="no"?>
<!DOCTYPE svg PUBLIC "-//W3C//DTD SVG 20010904//EN"
 "http://www.w3.org/TR/2001/REC-SVG-20010904/DTD/svg10.dtd">
<svg version="1.0" xmlns="http://www.w3.org/2000/svg"
 width="512.000000pt" height="512.000000pt" viewBox="0 0 512.000000 512.000000"
 preserveAspectRatio="xMidYMid meet">

<g transform="translate(0.000000,512.000000) scale(0.100000,-0.100000)"
fill="#000000" stroke="none">
<path d="M3439 5081 c-16 -16 -29 -40 -29 -53 -1 -13 -18 -189 -39 -393 -27
-262 -36 -377 -29 -396 22 -64 109 -80 159 -30 16 16 29 38 29 48 0 10 18 187
39 393 34 326 38 379 26 407 -26 61 -106 74 -156 24z"/>
<path d="M1883 4421 c-64 -24 -135 -71 -167 -114 -14 -18 -207 -401 -428 -850
l-403 -816 -240 -161 c-277 -186 -358 -260 -418 -381 -53 -108 -70 -192 -64
-319 6 -135 33 -217 109 -332 125 -186 290 -283 504 -295 123 -7 218 12 319
62 55 28 72 33 81 23 6 -7 172 -250 369 -541 248 -365 372 -541 407 -572 97
-87 226 -128 334 -107 175 36 293 146 329 308 19 84 15 159 -15 235 -9 26
-164 264 -344 529 -180 265 -324 486 -319 490 4 4 224 24 488 44 1000 79 1026
81 1087 110 187 89 279 320 248 622 -84 818 -892 1891 -1554 2063 -105 27
-249 28 -323 2z m317 -208 c290 -95 664 -429 937 -838 297 -443 433 -808 421
-1124 -7 -173 -51 -267 -152 -326 -63 -37 -118 -41 -210 -16 -391 107 -887
611 -1186 1206 -144 285 -221 552 -222 770 -1 152 19 223 83 287 82 82 171 93
329 41z m-556 -695 c150 -587 615 -1259 1108 -1605 45 -32 76 -59 68 -60 -71
-12 -1184 -92 -1190 -86 -14 16 -543 798 -547 809 -4 11 517 1087 523 1081 2
-2 19 -64 38 -139z m-479 -1418 c125 -184 240 -354 256 -376 l28 -41 -202
-138 c-111 -76 -226 -149 -254 -162 -167 -77 -355 -42 -489 92 -191 190 -197
477 -12 652 28 27 440 314 444 310 1 -1 104 -153 229 -337z m888 -1060 c192
-283 356 -529 363 -547 44 -102 -21 -237 -132 -273 -54 -18 -131 -6 -178 27
-52 38 -784 1113 -764 1124 7 4 72 48 143 98 120 84 133 90 174 88 l44 -2 350
-515z"/>
<path d="M2373 3466 c-74 -19 -181 -73 -199 -102 -9 -13 -16 -40 -16 -61 0
-29 7 -43 31 -65 41 -37 76 -36 153 5 57 30 69 32 157 32 82 0 104 -4 146 -25
141 -69 219 -232 181 -380 -23 -88 -45 -121 -140 -208 -48 -45 -51 -99 -7
-143 54 -54 112 -37 208 61 223 228 184 622 -80 804 -117 80 -303 116 -434 82z"/>
<path d="M4484 4307 c-292 -187 -634 -418 -643 -435 -34 -64 14 -142 87 -142
35 0 82 27 383 225 189 124 356 237 372 251 39 37 38 95 -2 135 -46 46 -80 40
-197 -34z"/>
<path d="M4039 3255 c-57 -31 -61 -117 -8 -157 30 -23 838 -172 880 -163 37 8
69 45 75 87 5 29 1 41 -23 67 -24 27 -40 35 -103 46 -409 75 -752 135 -771
135 -13 -1 -36 -7 -50 -15z"/>
</g>
</svg>
