<?xml version="1.0" standalone="no"?>
<!DOCTYPE svg PUBLIC "-//W3C//DTD SVG 20010904//EN"
 "http://www.w3.org/TR/2001/REC-SVG-20010904/DTD/svg10.dtd">
<svg version="1.0" xmlns="http://www.w3.org/2000/svg"
 width="512.000000pt" height="512.000000pt" viewBox="0 0 512.000000 512.000000"
 preserveAspectRatio="xMidYMid meet">

<g transform="translate(0.000000,512.000000) scale(0.100000,-0.100000)"
fill="#000000" stroke="none">
<path d="M2395 5034 c-206 -21 -239 -27 -306 -61 -133 -66 -194 -167 -210
-347 -10 -115 -19 -146 -66 -239 -64 -123 -203 -227 -341 -256 -118 -25 -242
-7 -353 49 -75 38 -152 60 -210 60 -71 0 -171 -35 -227 -80 -91 -71 -253 -314
-361 -541 -78 -164 -95 -224 -88 -311 11 -128 72 -220 203 -309 84 -56 139
-116 182 -197 80 -151 80 -333 0 -484 -43 -81 -98 -141 -182 -197 -88 -60
-140 -117 -174 -190 -23 -48 -27 -69 -26 -146 0 -78 5 -101 32 -167 105 -256
303 -571 415 -659 55 -44 156 -79 226 -79 58 0 135 22 210 60 291 148 626 11
736 -301 8 -23 20 -92 25 -153 8 -91 15 -122 40 -173 34 -69 105 -139 176
-173 94 -46 418 -71 653 -51 221 20 283 39 371 118 75 67 108 143 120 273 5
58 15 123 21 145 22 80 80 174 145 234 163 153 393 184 595 81 75 -38 152 -60
210 -60 66 0 165 34 222 75 87 64 239 288 353 520 87 177 109 253 100 343 -11
123 -73 216 -202 303 -84 56 -139 116 -182 197 -79 149 -80 327 -3 480 39 78
100 144 185 201 88 60 140 117 174 190 23 48 27 69 26 146 0 78 -5 101 -32
167 -73 179 -169 350 -290 516 -88 123 -149 174 -239 202 -110 34 -198 23
-322 -40 -202 -103 -432 -72 -595 81 -65 60 -123 154 -145 234 -6 22 -16 87
-21 143 -11 124 -37 188 -104 260 -62 66 -134 101 -248 118 -92 14 -415 26
-493 18z m254 -1744 c463 -59 754 -523 606 -967 -133 -396 -574 -601 -965
-446 -368 146 -556 562 -421 933 103 282 362 469 676 489 11 0 58 -4 104 -9z"/>
</g>
</svg>
