<?xml version="1.0" standalone="no"?>
<!DOCTYPE svg PUBLIC "-//W3C//DTD SVG 20010904//EN"
 "http://www.w3.org/TR/2001/REC-SVG-20010904/DTD/svg10.dtd">
<svg version="1.0" xmlns="http://www.w3.org/2000/svg"
 width="512.000000pt" height="512.000000pt" viewBox="0 0 512.000000 512.000000"
 preserveAspectRatio="xMidYMid meet">

<g transform="translate(0.000000,512.000000) scale(0.100000,-0.100000)"
fill="#000000" stroke="none">
<path d="M1396 5109 c-85 -20 -193 -94 -247 -171 l-20 -28 874 0 c542 0 894
-4 927 -10 29 -6 72 -20 95 -31 29 -15 231 -210 623 -603 510 -511 582 -587
598 -631 18 -48 19 -112 22 -1598 l2 -1548 29 20 c56 40 103 97 139 170 l37
75 3 1590 c1 875 0 1607 -3 1626 -6 30 -86 115 -548 577 -298 299 -556 550
-573 558 -28 13 -153 15 -976 14 -528 -1 -960 -5 -982 -10z"/>
<path d="M934 4670 c-101 -36 -189 -109 -239 -198 -57 -102 -55 0 -55 -2118 0
-1270 4 -1970 10 -2004 32 -170 170 -308 339 -340 34 -6 528 -10 1365 -10
1421 0 1377 -1 1478 55 91 51 163 139 199 243 18 53 19 110 19 1661 l0 1606
-563 562 -562 563 -970 -1 c-910 0 -973 -2 -1021 -19z m938 -1704 c44 -29 50
-69 46 -324 l-3 -234 -33 -29 -32 -29 -250 0 -250 0 -32 29 -33 29 0 169 c0
154 2 172 23 219 40 89 135 163 233 184 24 5 103 8 174 7 108 -2 135 -5 157
-21z m760 -14 l33 -32 3 -213 c4 -254 0 -291 -38 -329 l-28 -28 -202 0 -202 0
-28 28 c-38 38 -42 75 -38 329 l3 212 29 30 c16 16 38 32 50 35 11 2 103 3
203 3 l183 -2 32 -33z m513 27 c76 -14 121 -37 172 -89 77 -77 88 -111 91
-306 l3 -171 -31 -32 -32 -31 -199 0 -199 0 -32 29 -33 29 -3 234 c-4 249 2
295 41 321 44 28 124 34 222 16z m234 -880 l31 -31 0 -584 c0 -552 -1 -587
-19 -634 -11 -28 -32 -67 -46 -86 -57 -75 -191 -134 -270 -120 -20 4 -44 19
-59 37 l-26 31 0 331 c0 191 -4 347 -10 368 -6 20 -20 45 -31 55 -20 18 -53
19 -808 24 -745 5 -787 6 -813 24 -44 29 -50 69 -46 324 l3 234 33 29 32 29
999 0 999 0 31 -31z m-1519 -834 c56 -29 60 -51 60 -305 0 -326 2 -324 -244
-318 -138 3 -156 5 -207 29 -71 34 -125 87 -158 158 -24 51 -26 69 -29 204 -4
167 3 198 52 228 28 17 54 19 264 19 189 0 239 -3 262 -15z m881 -23 l29 -32
0 -250 0 -250 -29 -32 -29 -33 -234 -3 c-255 -4 -295 2 -324 46 -17 24 -19 50
-19 268 0 195 3 246 15 269 27 51 52 55 318 52 l244 -2 29 -33z"/>
</g>
</svg>
